# xmcd CD database file
#
# Track frame offsets:
#	150
#	20480
#	41867
#	58360
#
# Disc length: 1047 seconds
#
# Revision: 0
# Processed by: cddbd v1.5.1PL0 Copyright (c) Steve Scherf et al.
# Submitted via: CDex 1.51
#
DISCID=36041504
DTITLE=北原愛子 - 冬うらら
DYEAR=2005
DGENRE=JPop
TTITLE0=冬うらら
TTITLE1=優しい風
TTITLE2=君の側にいたいだけ
TTITLE3=冬うらら -instrumental-
EXTD=YEAR: 2005
EXTT0=
EXTT1=
EXTT2=
EXTT3=
PLAYORDER=
